<?xml version="1.0" encoding="utf-8"?>
<!-- Generator: Adobe Illustrator 25.4.1, SVG Export Plug-In . SVG Version: 6.00 Build 0)  -->
<svg version="1.1" id="Layer_1" xmlns="http://www.w3.org/2000/svg" xmlns:xlink="http://www.w3.org/1999/xlink" x="0px" y="0px"
	 viewBox="0 0 541.49 124.26" style="enable-background:new 0 0 541.49 124.26;" xml:space="preserve">
<style type="text/css">
	.st0{fill:#603745;}
	.st1{font-family:'Montserrat-Bold';}
	.st2{font-size:48.6129px;}
	.st3{fill:#C64754;}
	.st4{font-family:'Montserrat-Regular';}
	.st5{font-size:23.7651px;}
	.st6{font-family:'Montserrat-Medium';}
	.st7{font-size:17.3843px;}
	.st8{fill:#F9EAD6;}
	.st9{opacity:0.5;}
	.st10{fill:#FFFFFF;}
	.st11{fill:#65ADD9;}
</style>
<g id="BACKGROUND">
</g>
<g>
	<g>
		<g>
			<text transform="matrix(1 0 0 1 138.5613 78.9941)" class="st0 st1 st2">Learning Page</text>
			<text transform="matrix(1 0 0 1 140.2146 37.8241)" class="st3 st4 st5">The</text>
		</g>
		<text transform="matrix(1 0 0 1 140.7994 105.0664)" class="st0 st6 st7">FOR BETTER EDUCATION</text>
	</g>
	<g>
		<g>
			<g>
				<g>
					<g>
						<path class="st8" d="M65.93,74.74c-3.27,0-4.8-2.03-4.8-2.03c-8.16-7.09-32.36-6.08-32.36-6.08l-10.1-29.61
							c0,0,28.63,2.78,42.46,12.28c0,0,1.53,2.03,4.8,2.03c3.27,0,4.8-2.03,4.8-2.03c13.83-9.5,42.46-12.28,42.46-12.28l-10.1,29.61
							c0,0-24.19-1.01-32.36,6.08C70.73,72.71,69.2,74.74,65.93,74.74z"/>
					</g>
					<g>
						<path class="st8" d="M65.93,80.25c-3.55,0-5.21-2.2-5.21-2.2c-8.86-7.7-35.12-6.6-35.12-6.6L14.63,39.47
							c0,0,31.08,0.76,46.09,11.08c0,0,1.66,2.2,5.21,2.2c3.55,0,5.21-2.2,5.21-2.2c15.01-10.31,46.09-11.08,46.09-11.08
							l-10.97,31.97c0,0-26.26-1.1-35.12,6.6C71.14,78.05,69.48,80.25,65.93,80.25z"/>
					</g>
				</g>
			</g>
			<g>
				<path class="st8" d="M65.93,90.5c-4.04,0-5.94-2.51-5.94-2.51c-10.11-8.78-40.06-7.53-40.06-7.53L7.42,45.98v-2.19
					c0,0,35.44-2.82,52.57,8.94c0,0,1.9,2.51,5.94,2.51s5.94-2.51,5.94-2.51c17.12-11.76,52.57-8.94,52.57-8.94v2.19l-12.51,34.48
					c0,0-29.94-1.26-40.05,7.53C71.87,87.99,69.97,90.5,65.93,90.5z"/>
			</g>
		</g>
		<g>
			<path class="st3" d="M65.42,112.62c0,0.07,0,0.11,0,0.11S65.42,112.69,65.42,112.62z"/>
			<path class="st3" d="M71.87,54.92c0,0-1.9,2.51-5.94,2.51s-5.94-2.51-5.94-2.51C42.87,43.16,7.42,45.98,7.42,45.98l12.51,36.68
				c0,0,0.17-0.01,0.45-0.02l-0.04,0.02c44.76,1.97,45.11,28.12,45.08,29.96c0.06-1.84,1.74-28,46.5-29.96l12.51-36.68
				C124.43,45.98,88.99,43.16,71.87,54.92z"/>
			<g class="st9">
				<g>
					<path class="st10" d="M84.93,58.1l-1.89,8.34c9.1-3.65,21.15-4.14,27.62-4.09l2.8-7.44C113.47,54.91,96.94,53.79,84.93,58.1z"
						/>
				</g>
			</g>
		</g>
		<path class="st0" d="M64.39,16.44c3.75,3.64,6.81,8.47,8.24,14.87c0.85-1.28,1.61-2.74,2.21-4.49
			c4.04-11.76,8.21-14.08,13.8-13.58C88.64,13.24,74.7,9.24,64.39,16.44z"/>
		<path class="st11" d="M68.04,46.85c8.53-33.62-24.75-35.32-24.75-35.32c5.45,1.34,8.64,4.89,8.63,17.32
			c0,12.43,10.27,16.23,10.27,16.23S64.75,46.56,68.04,46.85z"/>
		<path class="st0" d="M71.87,54.92c0,0-1.9,2.51-5.94,2.51c-3.79,0-5.67-2.18-5.89-2.45c0.28,4.1,2.09,31.41,1.89,45.95
			c3.44,5.8,3.51,10.92,3.5,11.7c0.03-0.79,0.36-6,4.2-11.88c0.01-15.47,2.09-43.02,2.31-45.87C71.91,54.9,71.89,54.91,71.87,54.92z
			"/>
	</g>
</g>
</svg>
